<svg xmlns="http://www.w3.org/2000/svg" width="720" height="460" viewBox="0 0 720 460" role="img" aria-labelledby="title desc">
  <title id="title">Creative Productivity App preview</title>
  <desc id="desc">A glass dashboard for creator tasks and project context.</desc>
  <defs>
    <linearGradient id="bg" x1="0" x2="1" y1="0" y2="1">
      <stop stop-color="#10172e"/>
      <stop offset="1" stop-color="#21162e"/>
    </linearGradient>
    <linearGradient id="accent" x1="0" x2="1">
      <stop stop-color="#78fff1"/>
      <stop offset="1" stop-color="#ff8bd7"/>
    </linearGradient>
    <filter id="glow" x="-20%" y="-20%" width="140%" height="140%">
      <feGaussianBlur stdDeviation="12" result="blur"/>
      <feMerge><feMergeNode in="blur"/><feMergeNode in="SourceGraphic"/></feMerge>
    </filter>
  </defs>
  <rect width="720" height="460" fill="url(#bg)"/>
  <circle cx="134" cy="100" r="128" fill="#78fff1" opacity=".16" filter="url(#glow)"/>
  <circle cx="580" cy="88" r="150" fill="#ff8bd7" opacity=".14" filter="url(#glow)"/>
  <g fill="none" stroke="#fff" opacity=".08">
    <path d="M0 92h720M0 184h720M0 276h720M0 368h720"/>
    <path d="M120 0v460M240 0v460M360 0v460M480 0v460M600 0v460"/>
  </g>
  <rect x="74" y="58" width="572" height="344" rx="18" fill="#fff" opacity=".08" stroke="#fff" stroke-opacity=".18"/>
  <rect x="104" y="96" width="180" height="268" rx="14" fill="#050812" opacity=".58"/>
  <rect x="122" y="120" width="88" height="12" rx="6" fill="url(#accent)"/>
  <rect x="122" y="160" width="126" height="10" rx="5" fill="#fff" opacity=".34"/>
  <rect x="122" y="190" width="96" height="10" rx="5" fill="#fff" opacity=".2"/>
  <rect x="122" y="248" width="132" height="46" rx="10" fill="#78fff1" opacity=".18"/>
  <rect x="122" y="312" width="104" height="12" rx="6" fill="#fff" opacity=".24"/>
  <g transform="translate(318 104)">
    <rect width="272" height="92" rx="16" fill="#fff" opacity=".1" stroke="#fff" stroke-opacity=".16"/>
    <circle cx="40" cy="46" r="18" fill="#78fff1" opacity=".8"/>
    <rect x="74" y="30" width="132" height="10" rx="5" fill="#fff" opacity=".7"/>
    <rect x="74" y="52" width="166" height="8" rx="4" fill="#fff" opacity=".28"/>
  </g>
  <g transform="translate(318 220)">
    <rect width="272" height="112" rx="16" fill="#fff" opacity=".1" stroke="#fff" stroke-opacity=".16"/>
    <path d="M38 76c34-74 92 36 146-32 28-36 58-18 76 0" fill="none" stroke="url(#accent)" stroke-width="7" stroke-linecap="round"/>
    <rect x="32" y="28" width="116" height="10" rx="5" fill="#fff" opacity=".64"/>
  </g>
</svg>
