<svg xmlns="http://www.w3.org/2000/svg" width="720" height="460" viewBox="0 0 720 460" role="img" aria-labelledby="title desc">
  <title id="title">Orbit Runner preview</title>
  <desc id="desc">A browser game arena with orbit paths and energy pickups.</desc>
  <defs>
    <radialGradient id="bg" cx=".5" cy=".5" r=".8"><stop stop-color="#20264d"/><stop offset="1" stop-color="#070914"/></radialGradient>
    <linearGradient id="ship" x1="0" x2="1"><stop stop-color="#78fff1"/><stop offset="1" stop-color="#ff8bd7"/></linearGradient>
  </defs>
  <rect width="720" height="460" fill="url(#bg)"/>
  <g stroke="#fff" stroke-opacity=".1" fill="none">
    <circle cx="360" cy="230" r="72"/>
    <circle cx="360" cy="230" r="132"/>
    <circle cx="360" cy="230" r="194"/>
  </g>
  <circle cx="360" cy="230" r="34" fill="#ffd166" opacity=".9"/>
  <path d="M360 146l34 64 70 10-52 48 13 68-65-34-64 34 12-68-51-48 70-10z" fill="url(#ship)" opacity=".9"/>
  <circle cx="188" cy="178" r="12" fill="#78fff1"/>
  <circle cx="558" cy="276" r="10" fill="#ff8bd7"/>
  <circle cx="482" cy="118" r="8" fill="#ffd166"/>
  <rect x="76" y="52" width="150" height="44" rx="12" fill="#fff" opacity=".1"/>
  <rect x="506" y="52" width="138" height="44" rx="12" fill="#fff" opacity=".1"/>
  <rect x="96" y="70" width="86" height="8" rx="4" fill="#fff" opacity=".6"/>
  <rect x="526" y="70" width="78" height="8" rx="4" fill="#fff" opacity=".6"/>
</svg>
